# ProBuilder 5.1.1
# https://unity3d.com/unity/features/worldbuilding/probuilder
# 3/7/2024 4:39:22 PM

mtllib ./Triple_Square.mtl
o Triple Square

g Triple Square Model
v 0.1 0.4 0.1
v -0.1 0.4 0.1
v 0.1 0.5 0.1
v -0.1 0.5 0.1
v -0.1 0.4 -0.1
v -0.1 0.5 -0.1
v 0.1 0.4 -0.1
v 0.1 0.5 -0.1
v 0.1 -0.5 -0.1
v -0.1 -0.5 -0.1
v 0.1 -0.5 0.1
v -0.1 -0.5 0.1
v 0.3 0.25 -0.3
v -0.3 0.25 -0.3
v 0.3 0.09999999 -0.3
v -0.3 0.09999999 -0.3
v 0.3 0.25 0.3
v 0.3 0.09999999 0.3
v -0.3 0.25 0.3
v -0.3 0.09999999 0.3
v 0.3 -0.4 0.3
v -0.3 -0.4 0.3
v 0.3 -0.4 -0.3
v -0.3 -0.4 -0.3
v -0.5 0 -0.5
v -0.5 0 0.5
v -0.5 -0.25 -0.5
v -0.5 -0.25 0.5
v 0.5 0 0.5
v 0.5 0 -0.5
v 0.5 -0.25 0.5
v 0.5 -0.25 -0.5

vt 0.1 0.4
vt -0.1 0.4
vt 0.1 0.5
vt -0.1 0.5
vt -0.1 0.1
vt 0.1 0.1
vt -0.1 -0.1
vt 0.1 -0.1
vt -0.3 0.25
vt 0.3 0.25
vt -0.3 0.09999999
vt 0.3 0.09999999
vt 0.16 0.1
vt 0.16 -0.1
vt -0.09000002 0.3
vt -0.09000002 -0.3
vt 0.1 -0.134164
vt -0.1 -0.134164
vt 0.3 0.08944279
vt -0.3 0.08944279
vt -0.134164 -0.1
vt -0.134164 0.1
vt 0.0894428 -0.3
vt 0.0894428 0.3
vt -0.1 0.16
vt 0.1 0.16
vt -0.3 -0.09000004
vt 0.3 -0.09000004
vt -0.1 0.134164
vt 0.1 0.134164
vt -0.3 -0.08944279
vt 0.3 -0.08944279
vt -0.16 -0.1
vt -0.16 0.1
vt 0.09000002 -0.3
vt 0.09000002 0.3
vt 0.134164 0.1
vt 0.134164 -0.1
vt -0.0894428 0.3
vt -0.0894428 -0.3
vt 0.1 -0.16
vt -0.1 -0.16
vt 0.3 0.09000004
vt -0.3 0.09000004
vt -0.5 0
vt 0.5 0
vt -0.5 -0.25
vt 0.5 -0.25
vt 0.2236068 -0.3
vt 0.2236068 0.3
vt 0.4472136 -0.5
vt 0.4472136 0.5
vt -0.3 7.748604E-08
vt 0.3 7.748604E-08
vt -0.5 -0.2499999
vt 0.5 -0.2499999
vt 8.344651E-08 0.3
vt 8.344651E-08 -0.3
vt -0.2499999 0.5
vt -0.2499999 -0.5
vt 0.3 0.2236068
vt -0.3 0.2236068
vt 0.5 0.4472136
vt -0.5 0.4472136
vt 0.5 0.2499999
vt -0.5 0.2499999
vt -0.2236068 0.3
vt -0.2236068 -0.3
vt -0.4472136 0.5
vt -0.4472136 -0.5
vt 0.2499999 -0.5
vt 0.2499999 0.5
vt -0.3 -0.2236068
vt 0.3 -0.2236068
vt -0.5 -0.4472136
vt 0.5 -0.4472136

vn 0 0 1
vn -1 0 0
vn 0 0 -1
vn 1 0 0
vn 0 1 0
vn 0 -1 0
vn 0.6 0.8 0
vn 0.6 0.8 0
vn 0 -0.8944273 0.4472135
vn 0.4472135 -0.8944273 0
vn 0 0.8 -0.6
vn 0 0.8 -0.6
vn 0 -0.8944273 -0.4472135
vn -0.6 0.8 0
vn -0.6 0.8 0
vn -0.4472135 -0.8944273 0
vn 0 0.8 0.6
vn 0 0.8 0.6
vn -0.4472136 0.8944272 0
vn 0 -0.8 -0.6000001
vn -0.6000001 -0.8 0
vn 0 0.8944272 0.4472136
vn 0 -0.8 0.6000001
vn 0.4472136 0.8944272 0
vn 0.6000001 -0.8 0
vn 0 0.8944272 -0.4472136

usemtl Both_Shader
f 3/3/1 4/4/1 2/2/1 1/1/1
f 4/3/2 6/4/2 5/2/2 2/1/2
f 6/3/3 8/4/3 7/2/3 5/1/3
f 8/3/4 3/4/4 1/2/4 7/1/4
f 8/7/5 6/8/5 4/6/5 3/5/5
f 11/6/6 12/5/6 10/7/6 9/8/6
f 15/11/3 16/12/3 14/10/3 13/9/3
f 18/11/4 15/12/4 13/10/4 17/9/4
f 16/11/2 20/12/2 19/10/2 14/9/2
f 20/11/1 18/12/1 17/10/1 19/9/1
f 17/15/8 13/16/8 7/14/8 1/13/7
f 21/19/9 22/20/9 12/18/9 11/17/9
f 23/23/10 21/24/10 11/22/10 9/21/10
f 13/27/12 14/28/12 5/26/12 7/25/11
f 24/31/13 23/32/13 9/30/13 10/29/13
f 14/35/15 19/36/15 2/34/15 5/33/14
f 22/39/16 24/40/16 10/38/16 12/37/16
f 19/43/18 17/44/18 1/42/18 2/41/17
f 27/47/2 28/48/2 26/46/2 25/45/2
f 31/47/4 32/48/4 30/46/4 29/45/4
f 28/47/1 31/48/1 29/46/1 26/45/1
f 32/47/3 27/48/3 25/46/3 30/45/3
f 25/51/19 26/52/19 20/50/19 16/49/19
f 27/55/20 32/56/20 23/54/20 24/53/20
f 28/59/21 27/60/21 24/58/21 22/57/21
f 26/63/22 29/64/22 18/62/22 20/61/22
f 31/65/23 28/66/23 22/53/23 21/54/23
f 29/69/24 30/70/24 15/68/24 18/67/24
f 32/71/25 31/72/25 21/57/25 23/58/25
f 30/75/26 25/76/26 16/74/26 15/73/26

