# ProBuilder 5.1.1
# https://unity3d.com/unity/features/worldbuilding/probuilder
# 3/11/2024 3:40:06 PM

mtllib ./Prism.mtl
o Prism

g Prism (1)
v -0.2500001 -1 2.682209E-07
v 0.2500002 -1 1.490116E-07
v -0.2500002 0 -1
v 0.2500002 0 -1
v 0.2500002 0 1
v -0.2500003 0 1.000001

vt 0.7071069 -0.2500001
vt 0.7071068 0.2500001
vt -0.7071068 -0.2500001
vt -0.7071068 0.2500002
vt 0.7071069 0.2499998

vn 8.429369E-08 0.7071068 0.7071068
vn 2.528809E-07 0.7071069 -0.7071067

usemtl Both_Shader
f 4/4/1 3/3/1 1/1/1 2/2/1
f 6/4/2 5/3/2 2/1/2 1/5/2

